<svg width="330" height="402" viewBox="0 0 330 402" fill="none" xmlns="http://www.w3.org/2000/svg">
<path d="M321.45 190.721C316.119 185.391 309.65 182.728 302.033 182.728H292.902V127.907C292.902 92.885 280.343 62.814 255.217 37.689C230.093 12.563 200.025 0 164.998 0C129.972 0 99.8978 12.563 74.7758 37.688C49.6498 62.814 37.0909 92.884 37.0909 127.907V182.728H27.9559C20.3449 182.728 13.8719 185.391 8.54185 190.721C3.21185 196.047 0.547852 202.52 0.547852 210.138V374.59C0.547852 382.201 3.21285 388.676 8.54185 394.007C13.8719 399.332 20.3449 401.998 27.9559 401.998H302.04C309.657 401.998 316.125 399.335 321.457 394.007C326.782 388.676 329.451 382.201 329.451 374.59V210.135C329.455 202.523 326.782 196.051 321.45 190.721ZM238.087 182.728H91.9088V127.907C91.9088 107.732 99.0478 90.505 113.323 76.232C127.6 61.957 144.824 54.821 165.001 54.821C185.18 54.821 202.4 61.956 216.678 76.232C230.949 90.504 238.087 107.732 238.087 127.907V182.728Z" fill="white"/>
</svg>
